<?xml version="1.0" encoding="utf-8"?>
<!DOCTYPE svg PUBLIC "-//W3C//DTD SVG 1.0//EN" "http://www.w3.org/TR/2001/REC-SVG-20010904/DTD/svg10.dtd">
<svg version="1.0" xmlns="http://www.w3.org/2000/svg" width="1254px" height="1254px" viewBox="0 0 1254 1254" preserveAspectRatio="xMidYMid meet">
 <g fill="none">
  <path d="M0 627 l0 -627 627 0 627 0 0 627 0 627 -627 0 -627 0 0 -627z m629.45 579.85 c1.35 -1.59 0.98 -1.84 -1.84 -1.84 -2.82 0 -3.18 0.24 -1.84 1.84 0.86 0.98 1.71 1.84 1.84 1.84 0.12 0 0.98 -0.86 1.84 -1.84z m-6.37 -14.45 c1.22 -41.39 45.31 -124.05 93.93 -175.98 10.41 -11.02 24.98 -24.98 32.94 -31.47 l4.78 -3.92 -1.47 -13.23 c-0.86 -7.23 -4.29 -34.90 -7.59 -61.35 -3.31 -26.57 -6 -48.98 -6 -49.84 0 -0.86 2.69 -3.55 6 -6 7.23 -5.27 14.21 -6 18 -1.84 1.96 2.20 2.33 4.65 2.45 16.29 0 8.94 0.73 15.80 2.08 20.08 9.55 30.86 37.72 51.68 69.68 51.68 8.94 0 9.55 0.12 11.63 3.31 l2.20 3.31 0.61 -4.04 c0.61 -3.67 1.22 -4.29 7.96 -6.74 25.96 -9.43 45.92 -37.23 45.92 -63.80 -0.12 -18.98 -6.49 -34.04 -20.82 -48.49 -9.92 -10.04 -18.98 -15.55 -33.19 -19.96 -7.59 -2.45 -8.57 -3.18 -15.68 -11.88 -9.06 -11.51 -9.55 -14.70 -3.31 -25.96 4.90 -8.94 8.69 -20.70 9.92 -30.86 0.98 -7.35 0.98 -7.35 12.37 -18.12 6.25 -5.88 11.76 -11.88 12.12 -13.23 1.59 -5.02 -22.90 -44.58 -30.13 -48.74 -2.82 -1.59 -3.55 -2.82 -3.55 -6.37 0 -2.94 0.86 -5.14 2.57 -6.74 5.51 -5.02 5.39 -6 -2.20 -16.78 -7.96 -11.51 -17.39 -23.51 -27.68 -35.39 l-7.10 -8.33 -7.23 0 -7.35 0 0 -4.29 c0 -2.45 0.86 -5.76 1.96 -7.35 1.96 -2.94 1.84 -3.18 -5.39 -11.27 -4.04 -4.65 -15.31 -16.16 -24.98 -25.72 l-17.76 -17.39 -6.61 1.71 c-3.67 0.98 -8.45 1.84 -10.53 1.84 -3.80 0 -4.04 -0.24 -4.04 -3.92 0 -2.20 1.10 -5.88 2.57 -8.20 l2.45 -4.16 -3.43 -3.67 c-5.51 -5.88 -27.06 -21.55 -43.23 -31.23 l-14.70 -9.06 -12.37 8.20 c-7.35 4.90 -17.39 13.23 -24.61 20.33 -16.29 16.29 -17.02 16.29 -29.02 1.10 -9.92 -12.49 -10.41 -14.82 -6.74 -30.25 6.98 -29.39 -3.92 -64.90 -26.70 -87.44 -17.76 -17.39 -40.90 -28.17 -60.50 -28.04 -8.57 0.12 -24.74 2.82 -28.53 4.90 l-2.69 1.35 3.80 4.53 c7.72 9.43 17.14 22.17 27.92 38.33 14.21 20.94 14.21 20.45 2.94 42.13 l-8.33 15.92 -5.51 0.86 c-2.94 0.49 -13.96 1.22 -24.49 1.71 l-18.98 0.86 -14.21 -21.31 c-7.84 -11.76 -16.29 -25.10 -18.86 -29.88 -2.45 -4.65 -4.78 -8.82 -5.02 -9.18 -0.98 -1.22 -6.74 7.23 -11.39 16.65 -13.47 27.31 -13.47 54.62 0.12 82.54 6.98 14.21 22.90 30.25 37.23 37.60 12.12 6.25 25.96 10.04 40.17 11.02 l10.90 0.73 6.37 8.08 c3.55 4.41 9.06 11.02 12.12 14.70 4.78 5.63 5.76 7.59 5.76 11.76 0 2.82 -0.98 6.25 -2.08 7.96 -1.22 1.59 -12.49 17.88 -24.98 36 l-22.90 33.19 8.94 17.14 c4.90 9.43 21.68 42 37.35 72.25 15.68 30.37 31.96 61.72 36.25 69.68 6 11.14 7.84 15.80 7.84 19.59 0 2.82 -6.61 38.33 -14.82 79.11 l-14.82 73.97 6.61 5.51 c16.53 13.72 38.58 38.45 52.54 59.03 6.98 10.29 20.21 34.41 26.21 47.64 7.59 16.78 16.53 43.47 16.53 49.11 0 4.53 -0.12 4.78 -4.04 4.78 -3.92 0 -4.16 -0.37 -11.27 -14.94 -22.90 -46.78 -61.48 -97.11 -98.83 -129.20 -8.82 -7.35 -10.78 -9.80 -10.78 -12.49 0 -1.84 5.02 -27.55 11.02 -57.19 6.12 -29.51 13.35 -64.41 15.92 -77.52 l4.90 -23.76 -22.78 -44.82 c-12.61 -24.61 -30.37 -59.15 -39.43 -76.66 -21.19 -40.78 -28.41 -56.33 -28.41 -60.86 0 -4.41 6.49 -15.06 30.86 -50.82 9.31 -13.59 16.90 -24.98 16.90 -25.35 0 -0.37 -3.06 -4.41 -6.74 -9.06 l-6.74 -8.33 -12.37 -1.47 c-61.11 -7.23 -98.34 -56.33 -91.72 -121.48 2.33 -24 10.90 -45.07 23.27 -57.56 7.72 -7.96 15.80 -12.25 22.78 -12.25 4.65 0 4.90 0.24 6.98 5.88 3.06 8.33 13.72 26.57 26.21 44.94 l10.78 15.92 9.80 -0.37 c5.39 -0.24 10.65 -0.61 11.63 -0.98 1.84 -0.49 9.80 -15.06 9.80 -17.88 0 -1.84 -16.65 -26.82 -24 -36 -3.31 -3.92 -10.16 -12 -15.43 -17.76 -8.08 -8.82 -9.55 -11.14 -9.55 -14.70 0.12 -3.43 0.98 -4.78 5.27 -8.08 6.61 -5.02 16.41 -9.43 26.57 -12.25 12 -3.18 40.17 -2.82 53.27 0.73 31.35 8.45 57.80 30.74 71.52 60.37 7.84 16.65 10.29 29.02 10.29 50.58 0 10.16 -0.61 20.94 -1.35 24.25 -1.10 4.41 -1.10 6.25 0 8.08 1.35 2.33 1.84 2.08 7.72 -3.31 l6.12 -5.76 0.61 -84.50 0.61 -84.50 19.59 -0.37 c60.50 -1.22 120.99 18.25 169.73 54.37 56.94 42.25 98.83 115.48 110.09 192.39 11.51 78.99 -5.39 173.04 -42.86 237.94 -6.98 11.88 -7.10 12.25 -4.53 13.59 3.06 1.71 2.94 1.84 14.45 -17.51 38.09 -63.92 55.84 -138.87 48.25 -203.53 -4.90 -41.64 -16.65 -80.82 -35.02 -117.20 -32.45 -63.80 -79.97 -111.68 -141.32 -142.30 -36.74 -18.25 -69.80 -26.21 -114.13 -27.43 l-24.86 -0.73 0 -85.97 c0 -77.40 0.24 -86.09 1.96 -86.82 2.20 -0.86 11.51 -0.98 11.51 -0.24 0 0.37 5.51 20.82 12.12 45.68 6.74 24.74 14.21 52.90 16.78 62.58 2.45 9.55 4.78 17.14 5.02 16.90 0.73 -0.61 -13.96 -56.33 -40.66 -153.81 l-1.47 -5.51 -1.35 4.90 c-5.63 20.57 -36.74 138.14 -41.51 156.63 l-5.88 23.27 -16.78 2.94 c-9.18 1.71 -17.51 2.69 -18.49 2.33 -0.98 -0.37 -14.94 -20.08 -31.11 -43.96 -25.35 -37.35 -72.25 -104.95 -81.19 -116.95 -1.59 -2.20 -3.06 -3.80 -3.31 -3.55 -0.49 0.37 8.45 87.80 16.16 158.10 2.33 21.55 4.29 39.80 4.29 40.66 0 0.73 -5.14 4.53 -11.27 8.20 -6.25 3.67 -12.98 7.84 -15.06 9.18 -4.90 3.43 -10.90 3.31 -15.68 -0.37 -11.02 -8.20 -157.85 -103.60 -158.59 -102.99 -0.37 0.24 25.84 54.37 65.76 135.81 14.94 30.62 19.72 41.39 19.72 44.94 0 3.67 -1.22 6.25 -6 12.61 -3.31 4.41 -8.08 11.63 -10.53 16.04 -4.04 7.10 -4.90 7.96 -8.20 7.96 -2.08 0 -18.37 -3.80 -36.37 -8.45 -69.19 -18.12 -147.20 -37.23 -148.06 -36.37 -0.12 0.24 32.45 33.06 72.62 72.99 53.27 53.15 72.86 73.48 72.86 75.44 0 1.47 -1.35 7.72 -2.94 13.84 -1.71 6.12 -3.43 14.21 -3.80 17.88 -0.73 5.51 -1.35 6.86 -3.55 7.35 -1.35 0.37 -23.27 4.16 -48.49 8.57 -25.23 4.41 -54.13 9.67 -64.29 11.63 -10.04 1.96 -28.53 5.27 -41.02 7.47 -12.49 2.08 -23.63 4.29 -24.98 4.78 -1.59 0.49 10.04 6.37 41.02 20.45 23.88 10.90 53.03 24.25 64.78 29.76 11.76 5.39 33.68 15.43 48.62 22.29 l27.31 12.37 0.61 4.41 c0.49 2.45 2.08 10.90 3.80 18.98 1.59 7.96 2.94 16.04 2.94 17.88 0 3.67 1.35 2.69 -70.42 52.66 -21.55 15.06 -45.19 31.84 -52.66 37.23 l-13.47 9.92 28.17 0.86 c97.36 2.82 157.97 5.02 158.34 5.76 1.35 3.67 18.25 30.25 24.61 38.82 10.65 14.45 35.64 39.92 50.33 51.43 11.14 8.57 12.25 9.80 12.25 13.59 0 3.06 -4.04 10.65 -16.53 31.11 -9.18 14.94 -16.41 27.31 -16.29 27.43 0.24 0.24 4.65 1.59 10.04 3.06 29.51 8.20 62.46 28.29 100.66 61.23 28.04 24.25 101.89 100.42 132.01 136.30 3.31 3.80 6 6.98 6.12 6.98 0 0 0.24 -5.14 0.49 -11.39z m138.63 -124.18 c0 -0.98 -1.10 0 -6.12 5.51 l-5.51 5.76 5.88 -5.51 c3.18 -2.94 5.76 -5.51 5.76 -5.76z m120.13 -72.50 c0.49 -0.37 -0.24 -2.33 -1.47 -4.41 l-2.33 -3.67 0 3.92 c0 2.45 -0.86 4.41 -2.08 5.27 -1.71 0.98 -1.47 1.10 1.47 0.49 2.08 -0.49 4.04 -1.10 4.41 -1.59z m96.62 -164.10 c19.23 -0.73 55.84 -1.84 81.44 -2.57 25.59 -0.73 49.96 -1.59 54.25 -1.96 l7.72 -0.73 -4.65 -3.67 -4.65 -3.67 -0.37 3.06 -0.37 3.06 -17.39 0.73 c-36.49 1.59 -125.64 4.41 -136.79 4.41 -13.23 0 -20.82 0.98 -20.82 2.69 0 0.61 1.47 0.86 3.43 0.49 1.84 -0.37 18.98 -1.22 38.21 -1.84z m14.08 -126.99 c3.43 -16.65 3.55 -18.12 1.84 -17.02 -0.61 0.37 -1.22 2.20 -1.22 3.92 0 1.71 -1.35 10.04 -3.06 18.49 -1.71 8.45 -2.69 16.29 -2.20 17.27 0.61 1.35 0.98 0.37 1.35 -2.94 0.12 -2.69 1.71 -11.63 3.31 -19.72z m184.30 -103.60 c0 -0.49 -0.73 -0.98 -1.71 -0.98 -0.86 0 -3.43 -0.37 -5.51 -0.73 -3.67 -0.73 -3.80 -0.73 -3.80 3.67 l0 4.41 5.51 -2.69 c3.06 -1.47 5.51 -3.18 5.51 -3.67z m-108.38 -20.57 c-1.96 -0.49 -5.02 -0.98 -6.74 -0.98 -2.69 0 -2.69 0.12 0.61 0.98 2.08 0.49 5.02 0.98 6.74 0.98 2.69 0 2.69 -0.12 -0.61 -0.98z m-70.05 -11.88 c-2.08 -0.37 -2.82 -1.71 -3.43 -6.86 -0.49 -3.55 -2.20 -11.63 -3.80 -18 -1.59 -6.37 -2.94 -12.98 -2.94 -14.70 0 -2.20 -0.37 -2.57 -1.10 -1.47 -0.61 1.10 0.12 6.12 1.84 12.86 1.59 6.25 3.18 14.57 3.55 18.61 1.10 10.04 1.22 10.41 5.14 10.29 2.69 -0.12 2.94 -0.37 0.73 -0.73z m-46.90 -142.42 c2.57 -0.86 2.20 -0.98 -2.20 -1.10 -3.18 -0.12 -5.02 0.37 -4.53 1.10 0.86 1.35 2.33 1.35 6.74 0z m178.43 -44.94 c-0.86 -0.24 -5.63 0.73 -10.65 1.96 -8.57 2.20 -8.82 2.33 -3.92 2.45 4.90 0.12 5.14 0.24 5.14 3.92 l0 3.80 5.39 -6 c2.94 -3.18 4.78 -6 4.04 -6.12z m-282.64 -68.58 c0.24 -0.24 -1.22 -0.37 -3.55 -0.37 -3.43 0 -3.80 0.24 -2.45 1.84 1.22 1.47 1.96 1.59 3.55 0.37 1.10 -0.86 2.20 -1.71 2.45 -1.84z m-28.17 -136.91 c3.31 -32.94 6.49 -64.41 6.86 -69.80 l0.86 -9.80 -2.57 3.06 c-1.35 1.71 -4.78 6.25 -7.59 10.04 l-4.90 7.10 5.51 0 c4.78 0 5.63 0.37 5.63 2.45 0 1.22 -1.35 14.33 -3.06 29.02 -8.20 73.60 -14.57 141.93 -13.23 144.01 0.49 0.86 2.08 -11.51 3.67 -27.31 1.47 -15.80 5.39 -55.72 8.82 -88.78z m-118.79 82.05 c-0.37 -0.24 -4.65 -1.10 -9.67 -1.84 -15.31 -2.20 -14.21 -1.35 -16.65 -11.27 -1.10 -4.90 -2.33 -8.33 -2.45 -7.72 -0.24 0.73 0.61 5.14 1.71 9.80 l2.20 8.57 10.41 1.35 c12.86 1.71 15.19 1.84 14.45 1.10z m262.31 -20.45 l2.94 -2.45 -3.80 2.08 c-2.08 1.22 -5.02 3.18 -6.74 4.53 l-2.94 2.45 3.80 -2.08 c2.08 -1.22 5.02 -3.18 6.74 -4.53z m40.17 -17.88 l6.25 -12.49 -9.43 5.88 c-19.59 12.12 -26.08 16.41 -26.08 17.02 0 0.61 3.18 -1.22 9.18 -5.39 1.35 -0.86 4.78 -1.59 7.59 -1.59 l5.27 0 0 5.14 c0 2.82 0.24 4.78 0.49 4.53 0.24 -0.24 3.31 -6.12 6.74 -13.10z"/>
  <path d="M816.32 931.81 c-14.21 -3.31 -31.35 -16.04 -37.84 -27.92 -6.74 -12.25 -8.45 -19.23 -8.82 -35.51 l-0.24 -15.19 -19.47 -22.78 c-10.65 -12.49 -31.59 -36.98 -46.41 -54.50 -55.84 -65.64 -53.27 -61.97 -53.27 -77.40 l0 -9.06 4.16 0 c3.80 0 5.27 1.22 16.78 15.06 16.53 19.47 54.01 63.43 65.39 76.78 57.19 66.74 53.27 61.84 53.15 67.60 0 2.94 -0.49 8.08 -0.98 11.51 -2.69 19.10 9.43 39.80 28.78 49.11 11.02 5.27 18.61 6.25 28.04 3.43 16.16 -4.65 26.94 -13.47 33.55 -27.43 4.90 -10.53 5.76 -16.41 3.31 -25.84 -2.82 -10.78 -7.47 -18.86 -15.19 -25.84 -8.45 -7.72 -15.80 -11.39 -27.06 -13.84 -5.02 -0.98 -9.43 -2.20 -9.92 -2.82 -0.49 -0.49 -9.55 -11.88 -20.08 -25.10 -14.45 -18.37 -19.10 -24.98 -19.10 -27.68 0 -5.14 2.08 -6.37 10.90 -6.37 9.18 0 6.12 -2.82 28.17 25.10 l14.57 18.49 7.35 1.47 c11.63 2.45 21.92 8.20 31.47 17.88 4.78 4.78 10.16 11.51 12 15.06 6.25 11.76 8.69 32.45 5.76 48.25 -3.80 20.08 -21.06 39.43 -41.39 46.29 -6.12 2.08 -10.41 2.57 -23.15 2.45 -8.57 -0.12 -17.76 -0.61 -20.45 -1.22z"/>
  <path d="M813.14 889.43 l-11.27 -10.65 0.61 -5.88 c0.61 -5.27 6.86 -32.94 7.59 -33.80 0.73 -0.86 32.82 -8.82 35.64 -8.82 2.20 0 6.37 2.94 14.70 10.78 11.27 10.53 11.51 10.78 11.51 16.41 0 3.06 -1.35 10.78 -2.94 17.14 -1.59 6.25 -3.31 12.86 -3.67 14.57 -0.61 2.69 -1.71 3.43 -7.59 4.65 -3.80 0.86 -10.04 2.69 -13.72 3.92 -3.67 1.22 -9.67 2.33 -13.10 2.33 -6.37 0 -6.49 -0.12 -17.76 -10.65z"/>
  <path d="M815.71 761.95 c-4.04 -4.90 -5.02 -7.10 -5.02 -10.78 0 -4.53 0.61 -5.14 8.33 -10.53 6.37 -4.53 9.18 -5.88 12.98 -5.88 l4.78 0 -0.61 8.94 c-0.37 5.63 -1.71 11.51 -3.80 16.16 -2.82 6.74 -3.43 7.35 -7.35 7.72 -3.67 0.37 -4.78 -0.24 -9.31 -5.63z"/>
  <path d="M504.29 556.34 c-4.29 -5.27 -10.41 -12.86 -13.59 -17.02 l-5.88 -7.47 -11.02 -0.86 c-33.80 -2.57 -60.25 -19.10 -72.99 -45.68 -5.76 -11.88 -7.59 -19.59 -8.57 -34.04 -0.73 -12.86 0.73 -26.33 4.04 -36.37 1.84 -5.76 1.96 -5.88 7.23 -5.88 4.65 0 5.63 0.49 7.84 4.16 3.06 4.78 3.18 8.45 0.73 18.49 -2.33 9.43 -2.33 16.41 0 26.21 7.84 33.06 38.21 55.23 75.56 55.23 l8.94 0 15.06 18.37 c16.53 20.21 17.14 21.92 11.88 29.76 -2.57 3.67 -3.92 4.53 -7.23 4.53 -3.67 0 -5.02 -1.10 -12 -9.43z"/>
  <path d="M588.55 505.76 c-9.31 -4.41 -10.16 -5.27 -19.35 -17.27 -10.90 -14.57 -11.02 -15.31 -6.37 -29.88 8.33 -25.59 3.67 -49.47 -13.23 -68.46 -13.47 -15.19 -39.07 -27.68 -56.45 -27.68 -4.65 0 -6 -0.61 -8.82 -3.80 -2.57 -3.06 -3.06 -4.90 -2.82 -8.94 l0.37 -5.02 14.70 0.12 c13.23 0.12 15.68 0.49 25.23 4.04 30.37 11.14 50.45 30.98 59.64 58.66 2.82 8.45 3.18 11.39 3.18 28.41 0 13.35 -0.49 21.31 -1.96 26.70 -0.98 4.16 -1.47 7.84 -0.98 8.20 0.49 0.37 6.25 7.47 12.74 15.92 9.67 12.61 11.76 16.16 11.76 19.59 0 4.04 -0.24 4.29 -3.92 4.16 -2.20 0 -8.45 -2.20 -13.72 -4.78z"/>
 </g>
 <g fill="#4b3a8d">
  <path d="M617.82 1206 c-43.96 -50.45 -107.52 -116.34 -137.03 -141.81 -39.07 -33.80 -72.74 -54.01 -102.62 -61.72 -6 -1.59 -11.14 -3.06 -11.51 -3.43 -0.37 -0.37 7.72 -14.33 17.88 -30.98 10.16 -16.65 18.12 -30.74 17.51 -31.23 -0.49 -0.49 -6.49 -5.39 -13.23 -10.65 -14.70 -11.76 -37.96 -35.64 -48.62 -49.96 -6.25 -8.45 -23.02 -35.02 -24.49 -38.58 -0.37 -0.98 -95.15 -4.29 -158.59 -5.76 -19.10 -0.37 -34.66 -1.22 -34.66 -1.71 0 -1.84 23.51 -19.23 69.80 -51.56 71.52 -49.84 73.60 -51.43 72.99 -53.52 -0.73 -2.57 -5.27 -25.23 -6.25 -30.86 l-0.61 -4.41 -27.31 -12.37 c-14.94 -6.86 -36.86 -16.90 -48.62 -22.29 -17.63 -8.20 -74.46 -34.17 -110.09 -50.45 -4.65 -2.08 -7.47 -3.92 -6.74 -4.53 0.61 -0.61 14.08 -3.43 29.88 -6.25 15.80 -2.82 37.11 -6.74 47.15 -8.57 10.16 -1.96 39.07 -7.23 64.29 -11.63 25.23 -4.41 47.15 -8.20 48.49 -8.57 2.20 -0.49 2.82 -1.84 3.55 -7.35 0.37 -3.67 2.08 -11.39 3.55 -17.14 l2.82 -10.29 -76.42 -76.17 c-41.88 -41.88 -75.93 -76.54 -75.56 -77.15 1.10 -1.84 7.23 -1.22 24.74 2.69 23.63 5.27 152.95 37.72 168.14 42.25 1.47 0.37 3.31 -1.59 6.61 -7.47 2.45 -4.41 7.23 -11.63 10.53 -16.04 3.31 -4.41 6 -8.45 6 -8.94 0 -0.61 -15.31 -32.33 -34.04 -70.66 -58.17 -118.91 -57.19 -116.71 -55.47 -118.42 1.71 -1.71 3.55 -0.86 30.13 16.04 23.63 15.06 134.71 87.80 139.97 91.72 l4.04 3.06 9.43 -6 c5.14 -3.31 11.88 -7.47 14.94 -9.18 l5.63 -3.18 -4.04 -37.23 c-6.61 -61.23 -16.16 -154.18 -16.53 -162.02 -0.61 -10.90 1.84 -10.41 11.51 2.69 12.86 17.27 48.62 68.82 78.13 112.42 15.06 22.29 28.53 42.13 30.13 44.21 l2.69 3.67 14.57 -2.57 14.45 -2.57 6 -23.27 c5.51 -21.92 42.86 -162.75 44.33 -167.28 1.84 -5.88 4.04 -0.73 11.27 25.59 17.14 63.56 30.98 115.11 36.98 138.14 3.43 13.47 6.86 24.86 7.59 25.23 0.73 0.49 4.78 1.22 9.06 1.71 4.16 0.37 10.41 1.47 13.84 2.45 l6.12 1.59 21.06 -31.47 c53.52 -79.60 96.01 -139.73 98.58 -139.73 2.45 0 2.33 3.55 -3.67 63.07 -3.06 29.64 -7.23 70.42 -9.18 90.62 -2.08 20.21 -4.04 39.92 -4.41 43.84 -0.73 6.86 -0.61 7.10 3.06 9.18 2.20 1.10 9.18 5.51 15.55 9.80 6.49 4.29 12.37 7.47 13.10 7.23 0.73 -0.37 25.10 -16.29 54.01 -35.39 98.58 -65.27 119.40 -78.13 119.40 -73.84 0 0.98 -11.39 24.74 -46.54 96.74 -19.10 39.07 -36.98 75.93 -39.80 81.93 l-5.14 10.90 6.61 9.31 c3.67 5.02 8.45 12.37 10.53 16.29 2.20 3.92 4.78 7.10 5.76 7.10 1.10 0 5.76 -1.10 10.41 -2.33 4.78 -1.35 18.25 -4.90 30 -7.96 11.76 -2.94 33.31 -8.57 47.76 -12.37 48.74 -12.61 88.66 -21.80 97.97 -22.41 5.14 -0.24 8.82 -0.12 8.20 0.49 -0.49 0.61 -34.78 35.02 -76.17 76.42 l-75.31 75.31 2.94 11.63 c1.59 6.37 3.31 14.57 3.80 18.12 0.49 3.43 1.22 6.37 1.71 6.37 2.33 0 90.50 15.55 131.16 23.15 57.07 10.65 60.01 11.27 60.01 12.25 0 0.49 -2.57 1.96 -5.76 3.43 -3.31 1.35 -33.43 15.43 -67.11 31.23 -33.68 15.80 -74.21 34.66 -90.01 41.88 l-28.78 13.23 -3.55 17.63 c-1.84 9.67 -3.06 18.12 -2.69 18.74 0.49 0.73 12.49 9.67 26.82 19.84 76.29 54.74 112.30 81.56 112.30 83.27 0 1.10 -17.88 1.96 -71.64 3.55 -79.84 2.45 -113.89 3.67 -117.32 4.41 -2.45 0.49 -4.04 2.20 -5.88 5.76 -1.47 2.82 -5.76 10.41 -9.55 16.78 l-6.86 11.63 -0.86 -8.45 -0.86 -8.33 6.12 -10.65 c3.31 -5.76 6.37 -11.76 6.74 -13.10 0.86 -3.18 5.39 -4.16 20.08 -4.16 13.72 0 121.36 -3.55 140.59 -4.65 l15.06 -0.86 -35.88 -25.96 c-50.70 -36.62 -88.29 -64.05 -89.64 -65.27 -0.61 -0.61 0.49 -9.06 2.82 -19.96 2.08 -10.41 3.80 -20.33 3.80 -22.17 0 -3.06 1.35 -4.04 19.35 -12.61 10.53 -5.02 26.70 -12.61 35.76 -16.90 9.06 -4.16 38.33 -17.88 64.90 -30.25 26.57 -12.49 49.47 -23.02 50.70 -23.51 1.22 -0.37 2.08 -0.98 1.84 -1.22 -0.49 -0.61 -118.30 -21.92 -151.12 -27.43 l-20.82 -3.55 -0.98 -8.45 c-0.49 -4.65 -2.57 -14.70 -4.53 -22.41 l-3.67 -13.96 3.31 -4.41 c1.84 -2.45 32.57 -33.43 68.21 -68.95 35.64 -35.64 64.17 -64.66 63.43 -64.66 -2.45 0 -70.05 16.78 -120.50 29.88 -27.43 7.10 -50.58 12.98 -51.43 12.98 -0.86 0 -4.29 -4.78 -7.72 -10.65 -3.31 -5.76 -9.55 -15.31 -13.72 -21.06 -5.51 -7.47 -7.47 -11.14 -6.98 -12.86 0.73 -2.20 8.94 -19.35 58.54 -121.60 9.80 -20.45 17.88 -37.72 17.88 -38.45 0 -0.73 -0.98 -1.10 -2.08 -0.86 -2.57 0.73 -58.29 36.49 -109.36 70.17 -19.23 12.61 -35.76 23.27 -36.74 23.51 -0.98 0.24 -6.49 -2.94 -12.25 -7.10 -5.76 -4.04 -14.70 -9.92 -19.84 -12.98 -11.39 -6.49 -10.65 -2.45 -7.10 -42.25 3.55 -38.94 12.61 -126.87 14.08 -134.71 0.49 -2.69 0.12 -3.43 -1.71 -3.43 -2.57 0 -24.12 30.62 -73.11 103.60 -15.31 22.53 -28.41 41.39 -29.39 41.76 -0.86 0.24 -5.63 -0.37 -10.53 -1.47 -4.90 -1.10 -14.08 -2.69 -20.45 -3.55 l-11.51 -1.47 -7.23 -27.43 c-12.37 -47.15 -32.94 -122.95 -33.43 -123.44 -0.24 -0.24 -1.59 -0.12 -2.94 0.37 -2.57 0.73 -2.57 0.86 -2.57 83.40 0 72.50 0.24 82.54 1.84 82.54 0.98 0 1.84 0.86 1.84 1.84 0 1.22 -1.35 1.84 -4.29 1.84 l-4.29 0 -0.24 -71.27 -0.37 -71.15 -9.06 34.17 c-5.02 18.74 -12.61 47.64 -16.78 64.17 l-7.59 30 -6 0.98 c-3.18 0.49 -13.10 2.33 -22.04 4.04 -8.94 1.71 -17.39 2.94 -18.86 2.69 -1.96 -0.24 -8.82 -9.43 -26.33 -35.27 -41.27 -60.99 -71.64 -104.34 -72.37 -103.60 -0.24 0.24 0.37 8.08 1.47 17.39 3.06 27.68 11.27 105.19 14.21 135.32 0.86 7.84 1.22 15.06 0.73 16.04 -0.37 1.10 -4.65 4.04 -9.67 6.86 -4.90 2.69 -13.23 7.72 -18.49 11.14 -15.19 10.04 -12.74 10.78 -58.29 -19.35 -37.72 -24.86 -86.70 -56.82 -95.89 -62.33 l-4.53 -2.82 9.31 19.35 c5.14 10.65 14.82 30.25 21.43 43.60 6.61 13.35 12 24.49 12 24.74 0 0.37 7.10 14.94 15.92 32.57 10.90 21.68 15.92 33.19 15.92 36 0 3.06 -1.47 5.88 -5.63 11.02 -5.14 6.25 -15.06 21.55 -20.33 31.11 -2.69 4.78 -5.76 4.90 -22.41 0.61 -6.74 -1.59 -38.09 -9.55 -69.80 -17.63 -31.59 -8.08 -61.11 -15.43 -65.52 -16.41 l-7.84 -1.84 62.70 62.70 62.70 62.70 0 5.63 c0 3.06 -0.61 7.47 -1.35 9.67 -0.86 2.20 -2.94 11.51 -4.78 20.70 l-3.31 16.65 -28.66 5.14 c-29.15 5.27 -62.82 11.39 -107.28 19.59 l-24.74 4.53 11.88 5.39 c6.49 2.94 21.55 9.80 33.31 15.19 42.62 19.72 74.46 34.41 95.64 43.96 l21.55 9.80 1.35 10.65 c0.86 5.88 2.20 13.72 3.06 17.39 3.80 15.19 4.78 20.33 4.29 23.88 -0.37 3.31 -3.31 5.76 -26.08 21.68 -14.08 10.04 -37.23 26.33 -51.43 36.25 -14.08 10.04 -28.90 20.33 -32.70 22.90 -3.92 2.57 -7.10 5.14 -7.10 5.63 0 0.61 5.63 1.10 12.61 1.10 13.84 0 119.40 3.31 138.63 4.41 l12.37 0.73 6.37 12.49 c13.84 27.43 43.11 60.99 73.11 84.13 11.76 8.94 13.47 10.78 13.84 14.33 0.24 2.45 -0.49 5.27 -2.08 7.47 -1.47 1.96 -2.57 3.92 -2.57 4.29 0 0.37 -4.53 7.72 -9.92 16.29 -5.51 8.69 -11.51 18.12 -13.35 21.06 l-3.43 5.39 8.45 2.94 c21.06 7.10 54.98 27.31 78.25 46.78 29.88 24.98 88.05 82.42 126.13 124.91 18.74 20.82 20.21 22.17 20.57 18.98 0.49 -4.78 6.98 -27.68 10.16 -35.88 2.82 -7.47 2.33 -11.76 -1.35 -12.98 -1.35 -0.37 -2.45 -1.59 -2.45 -2.57 0 -0.98 -1.10 -1.71 -2.57 -1.71 -1.96 0 -2.45 0.49 -1.71 2.08 0.37 1.22 1.10 5.63 1.47 9.80 l0.73 7.72 -4.41 0 -4.29 0 -3.43 -10.04 c-4.78 -14.70 -4.78 -14.70 0.61 -4.65 2.69 5.02 4.90 8.57 5.02 7.72 0 -2.57 -11.27 -33.80 -16.53 -45.68 -5.63 -12.49 -19.23 -37.35 -25.47 -46.54 -17.02 -24.98 -42.37 -52.78 -58.29 -63.92 l-2.94 -2.08 15.68 -78.74 15.55 -78.74 -7.84 -14.70 c-4.41 -8.08 -20.82 -39.43 -36.49 -69.80 -15.68 -30.25 -32.82 -63.56 -38.21 -73.84 -5.39 -10.41 -9.43 -19.59 -9.06 -20.57 0.37 -1.10 11.39 -17.27 24.25 -36.13 30.49 -44.21 27.80 -39.31 24.25 -43.72 -1.71 -2.08 -7.35 -8.94 -12.49 -15.31 l-9.43 -11.51 -10.78 -0.73 c-14.21 -0.98 -28.04 -4.78 -40.17 -11.02 -14.33 -7.35 -30.25 -23.39 -37.23 -37.60 -7.72 -15.80 -10.29 -27.06 -10.29 -45.31 0 -18 2.57 -29.15 10.04 -44.70 4.41 -9.06 13.23 -20.21 15.92 -20.21 0.61 0 3.67 4.78 6.74 10.53 3.06 5.76 12 20.21 19.96 31.96 l14.33 21.55 15.31 -0.98 c8.45 -0.49 17.88 -1.22 20.82 -1.71 l5.51 -0.73 8.45 -16.41 8.57 -16.41 -2.20 -3.80 c-5.63 -9.55 -27.55 -40.41 -35.76 -50.09 -5.02 -5.88 -8.69 -11.27 -8.33 -11.88 4.29 -6.98 39.07 -11.02 56.82 -6.61 27.68 6.86 52.41 27.68 65.15 54.74 8.82 18.98 11.39 44.21 6.74 66.50 l-2.33 11.02 8.94 11.27 c4.90 6.25 9.06 11.27 9.18 11.27 0.24 0 6 -5.51 12.74 -12.12 11.88 -11.88 36.13 -29.51 40.41 -29.51 5.63 0 52.66 31.84 63.07 42.62 l4.65 4.90 -3.92 6.86 c-2.08 3.80 -3.67 6.86 -3.43 6.86 0.24 0 4.41 -1.10 9.43 -2.45 l9.18 -2.33 4.29 3.55 c5.88 4.65 42.74 42.25 47.15 48.13 l3.55 4.53 -3.31 4.90 c-1.71 2.69 -3.18 5.14 -3.18 5.63 0 0.49 3.18 0.49 7.10 0.12 l6.98 -0.73 6.86 8.20 c17.39 20.94 37.84 48.49 37.84 51.19 0 0.49 -2.20 3.67 -5.02 6.86 -2.82 3.31 -4.90 6.12 -4.65 6.37 0.24 0.12 1.96 1.22 3.80 2.33 4.41 2.82 17.51 21.80 26.08 37.84 l6.98 13.23 -2.69 4.29 c-1.47 2.33 -7.47 8.82 -13.35 14.33 -10.78 10.04 -10.90 10.16 -11.76 17.51 -1.22 10.16 -5.02 21.92 -10.16 31.35 l-4.41 8.08 7.72 9.67 c7.35 9.06 8.33 9.80 15.92 12.25 14.21 4.41 23.27 9.92 33.19 19.96 10.65 10.65 16.41 20.70 18.98 32.82 2.33 10.90 2.33 28.66 0 37.60 -2.57 9.80 -9.67 22.90 -16.41 30.49 -6.86 7.47 -21.06 17.02 -28.78 19.23 -3.18 0.86 -6 2.08 -6.37 2.57 -0.37 0.61 7.10 14.08 16.65 30 9.55 15.92 17.14 29.02 16.90 29.15 -0.24 0.12 -6 1.84 -12.86 3.67 -30.86 8.45 -64.66 28.78 -101.52 60.86 -34.78 30.25 -95.52 93.19 -142.54 147.81 l-5.51 6.37 -9.80 -11.27z m32.82 -30.49 c27.06 -30.49 37.60 -41.76 70.54 -74.95 41.02 -41.51 62.70 -60.25 91.36 -79.23 15.43 -10.16 38.70 -21.80 51.80 -25.72 4.78 -1.47 9.18 -3.18 9.55 -3.80 0.37 -0.61 -5.27 -10.90 -12.49 -22.78 -18.98 -31.47 -16.04 -28.53 -27.31 -28.53 -31.59 0 -59.39 -20.45 -69.44 -51.07 -1.22 -3.67 -2.08 -11.51 -2.33 -20.33 -0.37 -11.76 -0.86 -14.94 -2.57 -16.90 -2.82 -3.18 -3.55 -3.06 -10.16 1.96 l-5.76 4.16 4.53 35.88 c2.45 19.72 6 48 7.72 62.82 l3.31 26.82 -5.27 4.41 c-15.80 12.86 -37.60 35.27 -52.54 53.88 -42.49 53.15 -77.40 126.75 -74.70 157.97 0.12 2.08 -1.47 3.80 23.76 -24.61z m-10.16 -127.11 l6 -21.31 13.72 -12.86 c16.04 -15.31 30.49 -27.31 51.68 -42.98 l15.43 -11.51 -0.61 -5.02 c-0.73 -6.61 -6.37 -78.62 -7.35 -95.03 l-0.86 -12.86 8.82 -6 c4.78 -3.18 9.06 -6.37 9.43 -6.98 0.49 -0.98 -22.66 -29.39 -47.27 -57.68 l-9.18 -10.78 -0.37 7.47 c-0.37 6.74 0 7.84 3.80 13.10 5.88 8.08 8.20 12.98 8.20 17.39 0 3.43 -0.37 3.67 -4.29 3.67 -2.45 0 -6.49 -1.10 -9.18 -2.45 -2.69 -1.35 -5.39 -2.45 -6.25 -2.45 -0.73 0 -4.78 3.06 -9.06 6.74 -6.25 5.51 -8.45 6.74 -12.12 6.74 -4.04 0 -4.41 -0.24 -4.41 -3.55 0 -2.08 2.82 -11.51 6.12 -21.19 6 -17.02 6.12 -17.63 4.78 -24.25 -3.67 -17.88 -14.82 -45.07 -32.08 -78.74 l-11.27 -21.92 -24.74 -12 -24.86 -12 0 -4.53 c0 -4.04 1.10 -5.76 9.43 -14.21 l9.31 -9.67 -0.24 -14.70 -0.24 -14.70 5.88 0 c5.76 0 6 0.12 14.45 9.43 l8.69 9.31 14.21 1.35 c10.78 0.86 14.70 0.86 16.04 -0.24 2.20 -1.84 28.17 -37.11 27.55 -37.47 -0.37 -0.37 -2.33 -1.35 -45.68 -25.23 -17.51 -9.67 -35.15 -19.35 -39.07 -21.55 l-7.23 -3.92 -8.57 10.53 c-11.76 14.82 -25.35 33.43 -59.39 81.68 l-29.51 41.64 15.43 30 c8.45 16.53 23.02 44.33 32.21 61.84 9.31 17.51 19.84 37.96 23.63 45.43 3.67 7.35 7.47 14.08 8.45 14.82 1.22 0.98 30.98 10.04 60.13 18.25 1.47 0.49 2.08 1.84 2.08 4.78 l0 4.04 -14.94 0.73 c-29.02 1.47 -31.59 1.96 -32.21 4.90 -0.24 1.35 -2.57 15.31 -4.90 30.74 -2.45 15.55 -6.86 42.98 -9.92 61.11 -2.94 18.25 -5.27 33.43 -5.14 33.80 0.24 0.49 6.74 6.25 14.45 12.86 7.72 6.61 23.27 21.31 34.41 32.70 l20.45 20.70 3.92 20.45 c4.16 22.17 5.02 25.96 5.76 24.12 0.12 -0.61 3.06 -10.78 6.49 -22.53z m215.78 -121.48 c35.27 -11.88 52.54 -52.41 36.25 -85.60 -7.84 -16.29 -26.70 -30.98 -44.09 -34.53 l-7.35 -1.47 -14.57 -18.49 c-21.19 -26.70 -19.59 -25.10 -24.61 -25.10 -8.57 0 -7.84 1.71 10.90 25.10 9.67 12.12 18.61 23.27 19.72 24.86 1.59 2.08 4.53 3.31 11.27 4.65 11.51 2.45 18.74 6.12 27.31 13.96 16.29 14.82 21.19 38.70 12 58.41 -12.12 26.08 -42.98 37.11 -68.82 24.61 -21.55 -10.41 -32.57 -31.47 -29.27 -56.09 l1.35 -9.80 -22.29 -26.08 c-12.25 -14.21 -26.21 -30.62 -31.11 -36.37 -11.39 -13.35 -48.86 -57.31 -65.39 -76.78 -6.98 -8.33 -12.74 -15.06 -12.98 -15.06 -0.24 0 -0.37 2.57 -0.24 5.76 0.12 8.57 3.43 14.94 15.31 29.02 13.84 16.41 64.78 76.42 87.56 102.99 15.43 18 17.76 21.19 17.02 23.88 -1.59 6 -0.61 23.76 1.59 30.62 6.98 21.68 23.88 37.96 44.21 42.74 9.31 2.20 28.17 1.59 36.25 -1.22z m-15.92 -32.82 c3.67 -1.22 9.92 -3.06 13.72 -3.92 5.88 -1.22 6.98 -1.96 7.59 -4.65 0.37 -1.71 2.08 -8.33 3.67 -14.57 1.59 -6.37 2.94 -12.37 2.94 -13.47 0 -1.22 -5.14 -6.86 -11.39 -12.74 l-11.51 -10.53 -15.68 4.04 c-8.57 2.33 -15.80 4.41 -15.92 4.53 -0.24 0.24 -5.27 21.68 -7.23 30.62 -0.61 2.94 20.57 23.02 24.37 23.02 1.47 0 5.76 -1.10 9.43 -2.33z m-11.39 -138.14 c1.35 -3.55 2.94 -9.06 3.43 -12.12 0.61 -4.90 0.49 -5.63 -1.10 -5.02 -3.18 1.22 -16.78 11.14 -16.90 12.37 0 1.84 10.16 13.10 11.02 12.12 0.49 -0.49 2.08 -3.80 3.55 -7.35z m-28.78 -18.25 c26.45 -18.98 52.17 -39.19 52.17 -41.15 0 -1.96 -9.06 -17.51 -15.55 -26.45 -4.78 -6.74 -5.76 -7.47 -7.47 -6.12 -5.63 4.29 -25.59 20.94 -49.23 41.27 -14.45 12.37 -26.57 22.78 -26.82 22.90 -0.73 0.61 21.06 26.21 22.41 26.21 0.73 0 11.76 -7.47 24.49 -16.65z m-20.57 -66.01 c19.35 -16.78 37.72 -32.82 40.53 -35.51 l5.27 -4.90 -5.14 -7.35 c-5.63 -8.08 -14.21 -18.74 -22.53 -27.92 -4.41 -4.90 -5.76 -5.76 -8.08 -5.02 -3.92 1.22 -15.43 12.49 -46.66 45.80 -14.82 15.80 -29.39 31.35 -32.45 34.41 l-5.39 5.76 15.55 16.04 15.55 16.04 3.92 -3.43 c2.20 -1.84 19.96 -17.02 39.43 -33.92z m-49.60 -60.01 c23.15 -24.61 42.25 -45.19 42.49 -45.80 0.98 -2.82 -36.13 -39.31 -39.92 -39.31 -2.08 0 -12.86 8.45 -24.12 18.86 -6.86 6.37 -8.33 8.20 -6.98 9.43 3.18 3.43 1.59 8.20 -6.49 19.10 -26.08 35.27 -39.80 54.74 -39.55 55.72 0.49 1.35 30.49 26.57 31.72 26.70 0.49 0 19.72 -20.08 42.86 -44.70z m-209.41 -55.35 l1.96 -3.43 -14.82 -18 -14.82 -18.12 -8.94 0 c-37.35 0 -67.72 -22.17 -75.56 -55.23 -2.33 -9.80 -2.33 -24 -0.12 -33.55 1.71 -6.86 1.59 -7.59 -0.73 -11.27 -3.31 -5.51 -5.39 -5.02 -7.59 1.84 -4.65 14.08 -5.27 31.96 -1.84 46.66 2.20 8.69 9.92 24.49 15.68 31.59 5.63 7.10 17.27 16.16 26.08 20.70 9.06 4.53 25.59 8.94 37.60 9.80 l11.02 0.86 5.88 7.47 c15.19 19.47 21.43 26.45 22.90 25.35 0.73 -0.61 2.20 -2.69 3.31 -4.65z m168.02 -29.39 c6.25 -7.96 12.98 -16.53 14.94 -19.23 l3.55 -4.78 -5.39 -4.90 c-5.63 -5.02 -37.47 -26.57 -39.31 -26.57 -2.08 0 -19.35 14.82 -29.76 25.59 -8.33 8.57 -10.53 11.63 -9.55 12.61 1.10 1.10 52.54 31.23 53.76 31.47 0.24 0.12 5.51 -6.37 11.76 -14.21z m-96.62 -34.90 c-5.76 -7.59 -11.88 -15.31 -13.47 -17.02 l-2.94 -3.06 2.57 -9.80 c4.04 -14.70 3.92 -38.09 -0.37 -50.94 -9.18 -27.68 -29.39 -47.64 -59.64 -58.66 -8.57 -3.06 -12.61 -3.80 -21.43 -3.92 -7.10 -0.12 -11.02 0.24 -11.39 1.10 -0.24 0.73 0.98 3.18 2.69 5.27 2.82 3.18 4.16 3.80 8.82 3.80 7.10 0 18.37 2.94 28.04 7.35 39.31 17.76 54.98 54.13 41.51 96.50 l-2.94 9.31 9.43 12.74 c9.06 12.25 9.80 12.86 19.23 17.27 5.39 2.57 9.92 4.53 10.16 4.29 0.24 -0.12 -4.41 -6.49 -10.29 -14.21z m-36 -127.73 c0 -0.98 -14.94 -11.76 -19.96 -14.21 -2.57 -1.35 -5.27 -2.08 -6 -1.59 -0.61 0.49 2.69 2.82 7.47 5.39 4.78 2.57 10.53 6 12.74 7.72 3.80 3.06 5.76 4.04 5.76 2.69z"/>
  <path d="M514.34 905.35 c0.12 -2.57 0.86 -7.96 1.84 -12 0.98 -3.92 1.59 -7.35 1.47 -7.47 -0.12 -0.12 -5.39 -2.82 -11.63 -5.88 -15.06 -7.59 -35.27 -19.59 -47.64 -28.41 -10.65 -7.72 -40.78 -33.31 -40.78 -34.78 0 -0.49 -2.94 -4.29 -6.61 -8.33 -15.06 -16.90 -36.62 -65.88 -46.54 -106.17 -6.61 -26.45 -8.45 -40.90 -8.94 -73.84 -0.61 -32.70 0.24 -45.43 4.65 -66.99 5.02 -24 19.35 -61.84 23.51 -61.84 0.98 0 3.67 2.82 5.88 6.25 16.53 25.72 42.86 41.51 75.68 45.43 l12.37 1.47 8.45 10.41 8.45 10.53 -4.04 5.51 c-7.96 11.02 -33.31 48.62 -40.17 59.52 l-6.98 11.14 5.88 12.74 c3.31 6.98 13.47 27.06 22.53 44.58 9.06 17.51 27.06 52.54 39.92 77.76 l23.39 45.92 -7.35 35.51 c-4.04 19.59 -7.72 37.35 -8.08 39.55 -0.49 2.69 -1.35 3.92 -2.94 3.92 -1.84 0 -2.33 -0.86 -2.33 -4.53z"/>
  <path d="M604.96 471.47 l-3.92 -4.90 2.20 -8.82 c3.06 -13.23 2.82 -35.27 -0.73 -49.35 -3.31 -13.47 -11.14 -30.37 -18.86 -40.78 -3.18 -4.29 -5.51 -8.08 -5.14 -8.45 1.35 -1.35 45.80 -8.33 46.90 -7.35 0.49 0.49 0.61 108.87 0.12 109.11 -0.24 0.12 -4.04 3.67 -8.45 7.84 l-8.20 7.72 -3.92 -5.02z"/>
  <path d="M455.31 432.65 c-3.92 -4.65 -9.55 -13.84 -8.45 -13.84 0.61 0 6.25 -3.92 12.61 -8.69 10.78 -8.20 24.25 -17.02 25.96 -17.02 0.37 0 3.31 3.92 6.37 8.82 l5.63 8.82 -5.27 10.78 c-6 12.25 -4.65 11.51 -22.66 12.61 -10.78 0.61 -12.49 0.49 -14.21 -1.47z"/>
 </g>
 <g fill="#361d61">
  <path d="M612.92 1185.30 c-41.64 -47.88 -106.30 -112.66 -141.44 -142.05 -24.25 -20.33 -60.25 -41.51 -81.07 -47.76 -4.65 -1.47 -8.33 -2.94 -8.33 -3.43 0 -1.10 12.61 -22.04 22.41 -37.11 3.92 -5.88 6.98 -11.14 6.98 -11.51 0 -0.37 1.10 -2.33 2.45 -4.29 l2.57 -3.43 -9.55 -7.47 c-19.59 -15.43 -26.57 -21.68 -38.94 -34.53 -15.68 -16.29 -30.37 -36.49 -38.82 -53.03 l-6.37 -12.61 -11.76 -0.73 c-6.37 -0.37 -41.15 -1.59 -77.15 -2.57 -36 -1.10 -69.93 -2.33 -75.31 -2.82 l-9.80 -0.86 12.25 -8.45 c6.74 -4.78 23.27 -16.29 36.74 -25.84 13.47 -9.55 35.76 -25.23 49.60 -34.78 13.84 -9.67 26.08 -18.49 27.31 -19.72 1.96 -1.84 2.08 -2.82 0.98 -6.86 -3.06 -11.63 -5.14 -21.43 -6.49 -31.35 l-1.35 -10.65 -21.55 -9.80 c-23.27 -10.53 -43.23 -19.72 -81.56 -37.47 -27.06 -12.61 -60.25 -27.55 -66.50 -30 -2.20 -0.86 -3.80 -1.84 -3.43 -2.08 0.61 -0.61 64.54 -12.49 117.07 -21.80 17.14 -3.06 36.49 -6.49 42.86 -7.72 l11.63 -2.20 1.47 -8.45 c0.86 -4.78 2.94 -14.82 4.78 -22.41 l3.31 -13.96 -68.46 -68.46 c-65.03 -65.15 -68.21 -68.58 -63.56 -67.72 4.04 0.61 44.45 10.65 159.69 39.68 5.02 1.35 9.55 2.08 9.92 1.84 0.49 -0.37 3.43 -5.14 6.61 -10.65 3.06 -5.63 8.45 -13.72 11.76 -18.12 3.43 -4.41 6.98 -9.18 8.08 -10.53 1.71 -2.45 0.98 -4.29 -10.65 -27.55 -6.86 -13.72 -16.16 -32.70 -20.70 -42.13 -4.53 -9.43 -14.70 -30.37 -22.66 -46.54 -18 -36.74 -26.33 -54.50 -25.59 -54.50 1.71 0 79.23 49.96 127.73 82.42 13.10 8.69 24.74 16.16 25.96 16.41 1.10 0.37 6.37 -2.33 11.63 -5.76 5.27 -3.55 13.72 -8.57 18.49 -11.27 4.90 -2.69 9.18 -5.39 9.55 -5.88 0.37 -0.61 -0.12 -8.45 -1.10 -17.39 -0.98 -8.94 -2.45 -22.04 -3.06 -29.15 -1.84 -17.27 -6.86 -64.05 -10.65 -98.70 -1.71 -15.55 -2.94 -30.37 -2.69 -33.06 0.37 -4.65 0.37 -4.65 16.16 18 22.53 32.08 37.96 54.50 63.92 92.95 12.61 18.49 23.51 34.41 24.25 35.15 0.98 1.10 2.57 1.22 5.63 0.37 2.33 -0.61 11.63 -2.45 20.70 -4.04 l16.53 -2.82 3.92 -16.53 c4.90 -20.45 23.15 -88.91 30.86 -116.22 l5.76 -20.21 0.37 83.40 0.24 83.40 25.47 0.73 c44.82 1.10 77.76 9.06 114.75 27.43 52.05 25.96 94.17 64.29 125.40 114.13 69.44 111.07 70.17 243.57 1.84 357.59 -12.86 21.55 -11.51 20.08 -17.14 17.76 -2.69 -1.10 -6 -2.45 -7.47 -3.06 -2.57 -0.98 -2.33 -1.47 6.25 -16.16 38.82 -66.62 55.96 -156.14 44.70 -233.90 -4.16 -29.15 -12.37 -56.70 -25.47 -85.36 -23.76 -52.17 -62.33 -96.01 -108.87 -123.32 -41.76 -24.49 -96.13 -39.19 -141.69 -38.09 l-15.92 0.37 -0.61 31.84 -0.61 31.84 -7.35 0.86 c-13.84 1.71 -33.06 5.02 -35.02 6 -1.47 0.73 -3.80 -0.98 -9.18 -6.37 -13.84 -14.08 -31.72 -24.49 -50.09 -29.39 -12.74 -3.31 -34.29 -3.67 -45.92 -0.73 -9.31 2.45 -23.63 9.31 -28.66 13.72 l-3.43 3.18 9.67 10.65 c12.49 13.84 18 20.70 26.57 32.94 l6.86 9.92 -7.23 4.53 c-4.04 2.45 -11.39 7.47 -16.16 11.27 -4.90 3.67 -10.53 7.84 -12.61 9.06 l-3.67 2.20 -8.94 -13.59 c-9.92 -14.94 -18.86 -30.86 -21.31 -38.09 -1.47 -4.16 -1.96 -4.53 -4.78 -3.92 -5.39 1.35 -15.68 8.94 -20.94 15.55 -14.45 18.37 -22.17 47.88 -19.35 74.58 1.47 14.82 3.92 24.12 9.67 36.37 2.69 5.51 4.29 9.80 3.55 9.31 -1.71 -0.98 -10.16 17.76 -15.80 34.78 -9.80 30.13 -12.74 52.05 -11.88 89.89 0.61 28.90 2.69 45.07 8.94 70.17 9.92 40.29 31.47 89.27 46.54 106.17 3.67 4.04 6.61 7.84 6.61 8.33 0 1.47 30.13 27.06 40.78 34.78 12.61 8.94 32.57 20.82 48.62 28.90 10.90 5.39 12.25 6.49 11.63 8.94 -0.24 1.47 -1.35 6.37 -2.45 10.90 -0.98 4.53 -1.59 8.94 -1.22 9.80 0.24 0.86 -3.31 20.08 -7.96 42.62 l-8.45 41.02 6.98 6.12 c41.27 36 77.40 82.66 101.40 130.67 7.35 14.70 11.51 21.31 11.51 18.49 0 -1.96 -4.65 -17.88 -7.84 -27.06 -3.80 -10.78 -4.04 -13.10 -0.73 -8.20 1.35 2.08 2.20 4.29 1.96 5.02 -0.24 0.73 0 2.08 0.61 3.06 0.86 1.35 1.10 1.35 1.10 0.12 0 -0.86 0.61 -1.22 1.22 -0.86 0.86 0.61 0.98 1.35 0.12 2.33 -0.73 0.86 -0.73 2.08 -0.12 3.18 0.86 1.35 1.22 1.35 1.22 0.24 0 -1.10 0.61 -1.22 2.33 -0.37 1.22 0.73 2.69 0.86 3.18 0.37 0.61 -0.49 0.61 0.24 0.12 1.47 -0.61 1.96 -0.49 2.08 1.10 0.73 1.35 -1.10 1.84 -1.10 1.84 -0.12 0 0.86 0.61 1.10 1.35 0.73 0.73 -0.49 1.59 0.24 1.96 1.71 0.37 1.47 1.96 2.94 3.55 3.31 3.18 0.86 6.61 4.16 4.29 4.16 -0.73 0 -1.35 0.86 -1.35 1.84 0 0.98 0.49 1.84 1.10 1.84 0.61 0 -0.49 4.29 -2.45 9.55 -5.14 13.59 -9.67 30.13 -11.39 40.53 l-1.35 8.94 -11.02 -12.61z"/>
  <path d="M547.03 365.55 c-4.41 -2.94 -11.14 -6.98 -15.19 -8.82 -3.92 -1.84 -7.96 -4.29 -8.94 -5.39 -0.98 -1.10 -2.94 -2.33 -4.29 -2.69 -2.08 -0.49 -1.96 -0.61 0.61 -0.86 1.71 -0.12 3.67 -0.24 4.53 -0.12 0.86 0.12 1.84 -1.22 2.33 -2.94 0.37 -1.71 1.35 -3.06 2.20 -3.06 5.27 0 25.72 12.98 33.68 21.31 4.04 4.16 4.04 4.41 1.59 4.41 -1.59 0 -3.06 0.86 -3.43 1.84 -1.22 3.06 -4.78 2.08 -13.10 -3.67z"/>
  <path d="M625.78 106.54 c0 -1.35 0.61 -2.45 1.22 -2.45 0.73 0 1.22 1.10 1.22 2.45 0 1.35 -0.49 2.45 -1.22 2.45 -0.61 0 -1.22 -1.10 -1.22 -2.45z"/>
 </g>
 <g fill="#fffefe">
  <path d="M626.51 1060.51 l-5.88 -30.49 -20.45 -20.70 c-11.14 -11.39 -26.33 -25.84 -33.80 -32.08 -7.35 -6.25 -14.21 -12 -14.94 -12.86 -1.22 -0.98 -0.37 -8.94 4.41 -37.96 3.43 -20.21 8.08 -49.35 10.53 -64.90 2.33 -15.43 4.65 -29.39 4.90 -30.74 0.61 -2.94 3.06 -3.31 32.45 -4.90 9.80 -0.49 14.45 -1.22 12.86 -1.84 -1.35 -0.49 -15.06 -4.65 -30.62 -9.18 -15.43 -4.41 -28.90 -8.69 -29.76 -9.43 -0.98 -0.73 -4.78 -7.47 -8.45 -14.82 -3.80 -7.47 -14.33 -27.92 -23.63 -45.43 -24.12 -45.56 -48.98 -94.29 -48.98 -95.76 0 -1.22 54.37 -78.99 71.39 -102.01 15.55 -21.06 28.41 -36.74 30.13 -36.74 2.08 0 21.68 10.65 90.38 48.74 l10.16 5.63 -2.08 3.06 c-4.29 6.61 -27.68 37.96 -29.51 39.80 -1.71 1.47 -4.29 1.59 -16.16 0.61 -22.04 -1.71 -20.94 -1.35 -30.13 -11.51 -5.02 -5.63 -9.18 -9.18 -10.65 -9.18 -2.33 0 -2.45 0.61 -1.71 14.45 l0.86 14.45 -8.69 8.45 c-4.78 4.78 -9.18 9.55 -9.80 10.78 -1.10 1.96 1.59 3.55 23.63 14.33 l24.86 12 11.27 21.92 c18 35.15 27.55 58.66 32.21 79.72 l2.20 10.29 -6.61 18.86 c-3.55 10.41 -6.25 18.86 -5.88 18.86 0.37 0 4.90 -3.55 10.04 -7.96 5.02 -4.41 9.67 -7.96 10.29 -7.96 0.61 0 4.29 1.71 8.33 3.67 4.04 2.08 7.59 3.67 7.96 3.67 1.10 0 -3.06 -7.47 -7.35 -13.47 -4.04 -5.39 -4.04 -5.76 -4.53 -20.57 -0.24 -10.78 0 -14.94 0.98 -14.70 1.96 0.49 66.50 76.17 67.60 79.23 0.12 0.49 -4.65 4.53 -10.78 8.82 l-11.14 7.84 0.73 8.57 c2.08 25.72 7.96 101.03 7.96 102.50 0 0.98 -6.98 6.98 -15.55 13.35 -21.19 15.68 -35.64 27.68 -51.80 42.98 l-13.59 12.86 -7.84 27.92 c-4.41 15.31 -7.96 28.53 -7.96 29.39 0 0.98 -0.49 1.96 -0.98 2.33 -0.61 0.37 -3.67 -13.10 -6.86 -29.88z"/>
  <path d="M759.87 744.93 c-7.10 -8.57 -12.74 -16.29 -12.61 -17.14 0.37 -1.59 50.21 -44.82 71.15 -61.72 11.63 -9.43 12 -9.67 14.94 -7.72 3.67 2.45 13.59 16.78 20.08 29.02 4.78 8.94 4.90 9.67 3.06 12.37 -4.65 7.23 -76.78 60.74 -81.80 60.74 -1.10 0 -7.72 -6.98 -14.82 -15.55z"/>
  <path d="M715.91 695.46 c-9.18 -9.55 -16.65 -17.88 -16.65 -18.49 0 -0.61 2.94 -4.29 6.49 -8.08 35.27 -37.96 45.07 -48.37 58.90 -62.46 17.39 -17.76 25.96 -23.63 29.88 -20.82 5.51 4.04 22.04 23.88 30.86 36.86 6.37 9.43 6.37 9.55 4.16 12.12 -1.35 1.35 -13.35 12 -26.82 23.63 -13.47 11.63 -33.06 28.66 -43.47 37.72 -15.68 13.84 -19.59 16.78 -22.90 16.78 -3.31 0 -5.88 -2.20 -20.45 -17.27z"/>
  <path d="M650.27 694.97 c-2.82 -7.10 -2.57 -9.80 0.73 -6.49 2.33 2.20 4.41 11.02 3.06 12.37 -0.61 0.61 -2.20 -2.08 -3.80 -5.88z"/>
  <path d="M667.29 647.08 c-10.41 -8.45 -18.98 -15.80 -19.23 -16.29 -0.24 -0.86 18.74 -27.43 43.23 -60.37 l7.96 -10.78 -3.06 -1.96 c-1.71 -1.10 -3.06 -2.69 -3.06 -3.55 0 -1.59 19.59 -20.08 28.90 -27.19 9.43 -7.35 10.53 -7.47 17.88 -1.84 8.20 6.37 28.41 25.96 34.66 33.68 4.53 5.76 4.65 6.12 2.82 9.06 -2.94 4.90 -87.93 94.66 -89.64 94.66 -0.86 0 -10.04 -6.98 -20.45 -15.43z"/>
  <path d="M646.59 529.52 c-17.14 -9.80 -31.72 -18.25 -32.21 -18.74 -1.47 -1.47 24.98 -28.53 36.74 -37.72 l10.16 -7.96 7.10 4.04 c12.74 7.10 29.15 18.74 42.37 29.76 l3.67 3.06 -5.39 7.10 c-9.92 13.23 -29.51 37.72 -30.37 38.09 -0.49 0.12 -14.94 -7.84 -32.08 -17.63z"/>
  <path d="M625.78 105.19 c0 -3.92 1.84 -8.45 2.82 -7.23 1.22 1.59 2.94 9.80 2.08 9.80 -0.61 0 -1.84 0.37 -2.94 0.73 -1.59 0.61 -1.96 -0.12 -1.96 -3.31z"/>
 </g>
</svg>